<?xml version="1.0" encoding="UTF-8"?>
<svg id="Layer_1" data-name="Layer 1" xmlns="http://www.w3.org/2000/svg" xmlns:xlink="http://www.w3.org/1999/xlink" viewBox="0 0 1767.16 1248.39">
  <defs>
    <style>
      .cls-1 {
        fill: url(#linear-gradient-2);
      }

      .cls-2 {
        fill: url(#linear-gradient-3);
      }

      .cls-3 {
        clip-path: url(#clippath-1);
      }

      .cls-4 {
        clip-rule: evenodd;
        fill: none;
      }

      .cls-5 {
        clip-path: url(#clippath-2);
      }

      .cls-6 {
        fill: url(#linear-gradient);
      }

      .cls-7 {
        clip-path: url(#clippath);
      }
    </style>
    <clipPath id="clippath">
      <path class="cls-4" d="M985.18,865.22c171.41,62.47,302.02,145.56,391.81,249.25l78.07,116.59h312.1l-179.46-262.37s-.04-.05-.05-.08l-4.33-6.33c-109.56-156.42-397.95-294.68-865.15-414.79,0,4.69-131.17-39.19-145.4-42.93-52.02-13.87-95.08-26.01-129.46-36.41-34.1-10.4-60.97-21.38-80.91-32.94-19.65-11.56-33.23-24.56-40.75-39.01-7.51-14.45-11.27-31.5-11.27-51.15v-3.47c0-30.05,13-55.19,39.01-75.42,26.01-20.23,65.02-30.34,117.04-30.34s104.03,10.69,156.05,32.08c15.18,6.24,30.46,13.15,45.84,20.72V25.16C606.72,8.39,540.58,0,469.88,0c-62.42,0-119.64,8.67-171.36,26.01-51.73,17.34-96.52,42.19-133.8,74.56-37.28,32.37-66.18,70.8-86.98,115.3-20.52,44.5-30.92,94.5-30.92,149.98v3.47c0,60.11,9.54,110.39,28.61,150.85,19.07,40.46,46.24,74.27,80.92,101.43,34.68,27.16,77.16,49.99,126.86,68.49,120.36,44.53,215.53,62.53,338.88,83.17,32.93,5.51,64.96,11.47,96.08,17.89,87.24,17.99,167.41,39.56,240.51,64.69,8.94,3.08,17.78,6.2,26.51,9.39"/>
    </clipPath>
    <linearGradient id="linear-gradient" x1="755.35" y1="1181.42" x2="1062.47" y2="35.25" gradientUnits="userSpaceOnUse">
      <stop offset="0" stop-color="#3c91cf"/>
      <stop offset="1" stop-color="#4abbc2"/>
    </linearGradient>
    <clipPath id="clippath-1">
      <path class="cls-4" d="M985.18,576.1v-317.75h265.28c65.89,0,117.33,14.45,154.31,43.35,36.99,28.9,55.48,72.24,55.48,130.04v3.47c0,52.02-17.63,93.63-52.88,124.84-35.25,31.21-85.83,46.81-151.71,46.81h-179.59c169.98,61.32,307.51,133.66,412.58,217.03l-17.99-26.31c77.45-28.9,140.16-74.27,188.13-136.11,47.97-61.84,71.96-141.89,71.96-240.14v-3.47c0-125.99-40.17-224.25-120.5-294.76-80.34-70.51-192.75-105.77-337.24-105.77h-554.84v487.21c95.7,21.57,184.71,45.42,267.02,71.55"/>
    </clipPath>
    <linearGradient id="linear-gradient-2" x1="1002.82" y1="1247.73" x2="1309.95" y2="101.56" xlink:href="#linear-gradient"/>
    <clipPath id="clippath-2">
      <path class="cls-4" d="M649.34,982.24c-30.63,20.23-73.69,30.34-129.17,30.34-69.35,0-133.22-13.29-191.59-39.88-58.37-26.59-115.3-62.42-170.79-107.5L0,1054.2c72.82,65.89,153.74,114.72,242.74,146.51,89.01,31.79,179.75,47.68,272.22,47.68,65.89,0,125.99-8.38,180.03-25.14,7.88-2.44,15.6-5.05,23.17-7.81,44.35-16.19,83.37-37.86,116.7-65.02,39.01-31.79,69.35-71.09,91.32-117.9,18.03-38.95,28.67-82.5,31.73-130.66-66.16-26.84-146.07-50.25-239.74-70.24-18.29-3.9-37.1-7.67-56.43-11.31,11.25,8.99,19.26,18.46,24.02,28.42,6.36,13.29,9.53,28.61,9.53,45.95v3.47c0,35.83-15.31,63.86-45.95,84.09"/>
    </clipPath>
    <linearGradient id="linear-gradient-3" x1="460.7" y1="1102.46" x2="767.83" y2="-43.7" xlink:href="#linear-gradient"/>
  </defs>
  <g class="cls-7">
    <rect class="cls-6" x="46.82" width="1720.34" height="1231.05"/>
  </g>
  <g class="cls-3">
    <rect class="cls-1" x="718.16" y="17.34" width="1012.58" height="806.55"/>
  </g>
  <g class="cls-5">
    <rect class="cls-2" y="820.31" width="957.91" height="428.07"/>
  </g>
</svg>